# xmcd
#
# Track frame offsets:
#	183
#	29003
#	66125
#	99633
#	119898
#	141653
#	158485
#	182148
#	200405
#	225628
#
# Disc length: 3239 seconds
#
# Revision: 0
# Processed by: cddbd v1.5.2PL0 Copyright (c) Steve Scherf et al.
# Submitted via: audiograbber 1.83.01
#
DISCID=950ca50a
DTITLE=G.C. Cameron - Right Or Wrong
DYEAR=1991
DGENRE=Soul
TTITLE0=Out Of My Mind
TTITLE1=Come Back To Me
TTITLE2=Right Or Wrong
TTITLE3=No Need To Explain
TTITLE4=Right Of Way
TTITLE5=Just My Imagination (Running Away With Me)
TTITLE6=Heartache, Heartbreak
TTITLE7=I'll Be Around
TTITLE8=Good Times Up Ahead
TTITLE9=It's A Shame
EXTD=
EXTT0=
EXTT1=
EXTT2=
EXTT3=
EXTT4=
EXTT5=
EXTT6=
EXTT7=
EXTT8=
EXTT9=
PLAYORDER=
